<svg viewBox="0 0 716 550" fill="var(--color0, #fff)" width="41.658182" height="32" xmlns="http://www.w3.org/2000/svg" xmlns:xlink="http://www.w3.org/1999/xlink">
    <style>
        :root, .palette0 {color: currentColor;
            --color0: #fff;
            --color1: #8f8f8f;
            --color2: #cd1313;
            --color3: #29df3b;
            --color4: #e51515;
        }
    </style>
    <path d="M546.658 116c43.546 0 78.816 29.647 78.816 66.25V222C642.912 222 657 233.842 657 248.5v53c0 14.658-14.088 26.5-31.526 26.5v39.75c0 36.603-35.27 66.25-78.816 66.25H136.815C93.2699 434 58 404.353 58 367.75v-185.5C58 145.647 93.2699 116 136.815 116zM136.815 169c-8.669 0-15.762 5.963-15.762 13.25v185.5c0 7.287 7.093 13.25 15.762 13.25h409.843c8.67 0 15.763-5.963 15.763-13.25v-185.5c0-7.287-7.093-13.25-15.763-13.25z" />
    <rect width="275" height="190" rx="20" x="135" y="180" />
</svg>