<svg viewBox="0 0 698 640" fill="none" width="34.9" height="32" xmlns="http://www.w3.org/2000/svg" xmlns:xlink="http://www.w3.org/1999/xlink">
    <style>
        :root, .palette0 {color: currentColor;
            --color0: #fff;
            --color1: #8f8f8f;
            --color2: #cd1313;
            --color3: #29df3b;
            --color4: #e51515;
        }
    </style>
    <path fill="var(--color0, #fff)" d="M563.667 337.406V261c0-94.99-66.854-174.9356-157.627-198.83C397.147 40.34 375.067 25 349 25c-26.066 0-47.84 15.34-57.04 37.17C201.187 86.36 134.334 166.304 134.334 261v76.406L81.8944 387.85c-2.8432 2.757-5.0912 6.025-6.6179 9.62-1.5254 3.594-2.2991 7.443-2.276 11.326v59c0 16.224 13.8006 29.5 30.6665 29.5h490.666c16.868 0 30.667-13.276 30.667-29.5v-59c0-7.966-3.374-15.34-8.894-20.946zM563.667 438H134.334v-17.406l52.44-50.444c2.842-2.757 5.09-6.025 6.617-9.62 1.525-3.594 2.299-7.443 2.276-11.326v-88.5c0-81.42 68.693-147.5 153.333-147.5s153.333 66.08 153.333 147.5v88.5c0 7.966 3.374 15.34 8.894 20.946l52.44 50.444zM435.48 556H262.52c12.574 34.514 46.308 59 86.48 59 40.174 0 73.907-24.486 86.48-59z" />
</svg>