<svg viewBox="0 0 698 640" fill="var(--color2, #cd1313)" width="34.9" height="32" xmlns="http://www.w3.org/2000/svg" xmlns:xlink="http://www.w3.org/1999/xlink">
    <style>
        :root, .palette0 {color: currentColor;
            --color0: #fff;
            --color1: #8f8f8f;
            --color2: #cd1313;
            --color3: #29df3b;
            --color4: #e51515;
        }
    </style>
    <rect transform="rotate(-40 92 308.995)" width="70" height="344.79" rx="33" x="92" y="308.995" />
    <rect transform="rotate(40 313.628 264)" width="70" height="344.793" rx="33" x="313.628" y="264" />
    <path fill="var(--color1, #8f8f8f)" d="M349.08 448.65c28.819 0 52.2 21.601 52.2 48.225 0 8.172-2.204 15.871-6.092 22.617l-58.325-69.51c3.919-0.869 8.01-1.332 12.217-1.332zM413.694 279.839c46.363 11.763 87.206 35.856 118.086 68.141 12.724 13.363 11.31 33.657-3.045 45.412-14.355 11.754-36.431 10.449-49.155-2.813-28.492-29.814-68.558-49.736-113.731-53.72zM349.08 95c117.559 0 224.351 43.101 302.651 113.228 13.812 12.357 14.138 32.753 0.762 45.412-13.377 12.658-35.453 13.061-49.155 0.703C537.435 195.469 447.934 159.3 349.08 159.3c-98.853 0-188.355 36.169-254.1484 95.043-13.8113 12.357-35.888 12.056-49.1553-0.703-13.2667-12.759-13.0488-33.156 0.7617-45.412C124.729 138.101 231.522 95.0002 349.08 95z" />
</svg>