<svg viewBox="0 0 698 640" fill="none" width="34.9" height="32" xmlns="http://www.w3.org/2000/svg" xmlns:xlink="http://www.w3.org/1999/xlink">
    <style>
        :root, .palette0 {color: currentColor;
            --color0: #fff;
            --color1: #8f8f8f;
            --color2: #cd1313;
            --color3: #29df3b;
            --color4: #e51515;
        }
    </style>
    <path fill="var(--color0, #fff)" d="M375.2 84c19.2 1e-4 34.8 15.6 34.8 34.8v378.4c0 19.2-15.6 34.8-34.8 34.8-8.5 0-16.7-3.1-23.1-8.8L218 404h-48c-26.5 0-48-21.5-48-48v-96c0-26.5 21.5-48 48-48h48L352.1 92.7998c6.4-5.7 14.6-8.7998 23.1-8.7998zM468.8 237c8.4-10.3 23.5-11.9 33.8-3.5h-0.1c21.6 17.6 35.5 44.4 35.5 74.5s-13.9 56.9-35.4 74.6c-10.3 8.3-25.5 6.8-33.8-3.5s-6.8-25.4 3.5-33.8C483.1 336.4 490 323 490 308s-6.9-28.4-17.7-37.2c-10.3-8.4-11.9-23.5-3.5-33.8zM568 378h-0.127c0.043-0.076 0.085-0.153 0.127-0.229z" />
</svg>