<svg viewBox="0 0 640 640" fill="none" width="32" height="32" xmlns="http://www.w3.org/2000/svg" xmlns:xlink="http://www.w3.org/1999/xlink">
    <style>
        :root, .palette0 {color: currentColor;
            --color0: #fff;
            --color1: #8f8f8f;
            --color2: #cd1313;
            --color3: #29df3b;
            --color4: #e51515;
        }
    </style>
    <path fill="var(--color0, #fff)" d="M112 416h48l134.1 119.2c6.4 5.7 14.6 8.8 23.1 8.8 19.2 0 34.8-15.6 34.8-34.8V130.8c0-19.2-15.6-34.8-34.8-34.8-8.5 0-16.7 3.1-23.1 8.8L160 224h-48c-26.5 0-48 21.5-48 48v96c0 26.5 21.5 48 48 48zM505.1 171c-10.3-8.4-25.4-6.8-33.8 3.5s-6.8 25.4 3.5 33.8C507.3 234.7 528 274.9 528 320s-20.7 85.3-53.2 111.8c-10.3 8.4-11.8 23.5-3.5 33.8s23.5 11.8 33.8 3.5c43.2-35.2 70.9-88.9 70.9-149s-27.7-113.8-70.9-149zM444.6 245.5c-10.3-8.4-25.4-6.8-33.8 3.5s-6.8 25.4 3.5 33.8C425.1 291.6 432 305 432 320s-6.9 28.4-17.7 37.3c-10.3 8.4-11.8 23.5-3.5 33.8s23.5 11.8 33.8 3.5c21.5-17.7 35.4-44.5 35.4-74.6s-13.9-56.9-35.5-74.5z" />
    <defs>
        <clipPath id="volume_34_clip0_1_2">
            <rect fill="#fff" width="640" height="640" />
        </clipPath>
    </defs>
</svg>