<svg viewBox="0 0 698 640" fill="none" width="34.9" height="32" xmlns="http://www.w3.org/2000/svg" xmlns:xlink="http://www.w3.org/1999/xlink">
    <style>
        :root, .palette0 {color: currentColor;
            --color0: #fff;
            --color1: #8f8f8f;
            --color2: #cd1313;
            --color3: #29df3b;
            --color4: #e51515;
        }
    </style>
    <path fill="var(--color0, #fff)" d="M349.081 159.3c-98.854 0-188.355 36.169-254.1488 95.043-13.8112 12.358-35.8875 12.057-49.155-0.703-13.2675-12.759-13.05-33.155 0.7613-45.412C124.73 138.101 231.522 95 349.081 95s224.351 43.101 302.651 113.228c13.812 12.358 14.138 32.753 0.762 45.412-13.377 12.659-35.453 13.061-49.155 0.703-65.903-58.874-155.404-95.043-254.258-95.043zM296.881 496.875c0-26.624 23.381-48.225 52.2-48.225s52.2 21.601 52.2 48.225-23.381 48.225-52.2 48.225-52.2-21.601-52.2-48.225zM218.581 390.579c-12.724 13.362-34.691 14.568-49.155 2.813s-15.769-32.049-3.045-45.412c44.587-46.617 109.946-76.155 182.7-76.155s138.113 29.538 182.7 76.155c12.724 13.363 11.31 33.657-3.045 45.412s-36.431 10.449-49.155-2.813c-31.972-33.456-78.517-54.454-130.5-54.454-51.982 0-98.528 20.998-130.5 54.454z" />
    <path fill="var(--color1, #8f8f8f)" d="M349.081 95c117.559 0 224.351 43.101 302.651 113.228 13.812 12.357 14.138 32.753 0.762 45.412-13.377 12.659-35.453 13.061-49.155 0.703-65.903-58.874-155.404-95.043-254.258-95.043s-188.355 36.169-254.1485 95.043c-13.8112 12.358-35.8878 12.057-49.1552-0.703-13.2674-12.759-13.0495-33.156 0.7617-45.412C124.73 138.101 231.522 95 349.081 95z" />
</svg>