<svg viewBox="0 0 685 449" fill="none" width="48.819599" height="32" xmlns="http://www.w3.org/2000/svg" xmlns:xlink="http://www.w3.org/1999/xlink">
    <style>
        :root, .palette0 {color: currentColor;
            --color0: #fff;
            --color1: #8f8f8f;
            --color2: #cd1313;
            --color3: #29df3b;
            --color4: #e51515;
        }
    </style>
    <path fill="var(--color0, #fff)" d="M536.286 61.991c44.762 0 81.017 30.4556 81.017 68.057v40.834c17.925 0 32.407 12.165 32.407 27.223v54.445c0 15.058-14.482 27.223-32.407 27.223v40.834c0 37.601-36.255 68.057-81.017 68.057H114.994c-44.7613 0-81.0164-30.456-81.0164-68.057V130.048c0-37.6014 36.2551-68.057 81.0164-68.057zM114.994 116.436c-8.911 0-16.2024 6.126-16.2024 13.612v190.559c0 7.486 7.2914 13.611 16.2024 13.611h421.292c8.912 0 16.203-6.125 16.203-13.611V130.048c0-7.486-7.291-13.612-16.203-13.612z" />
    <path fill="var(--color3, #29df3b)" d="M353.348 136.836c3.923 2.835 5.374 7.979 3.594 12.462l-25.848 64.652H378.8c4.451 0 8.407 2.769 9.924 6.956 1.516 4.187 0.23 8.869-3.165 11.704l-94.95 79.125c-3.726 3.099-9.034 3.264-12.957 0.429s-5.374-7.979-3.594-12.462l25.848-64.652H252.2c-4.451 0-8.407-2.769-9.924-6.956-1.516-4.187-0.23-8.869 3.165-11.704l94.95-79.125c3.726-3.099 9.034-3.264 12.957-0.429z" />
    <mask id="charging_mask0_5_2" style="mask-type:alpha" width="685" height="449" maskUnits="userSpaceOnUse">
        <rect fill="#d9d9d9" width="685" height="449" />
    </mask>
</svg>