<svg viewBox="0 0 698 640" fill="none" width="34.9" height="32" xmlns="http://www.w3.org/2000/svg" xmlns:xlink="http://www.w3.org/1999/xlink">
    <style>
        :root, .palette0 {color: currentColor;
            --color0: #fff;
            --color1: #8f8f8f;
            --color2: #cd1313;
            --color3: #29df3b;
            --color4: #e51515;
        }
    </style>
    <g fill="var(--color0, #fff)" clip-path="url(#ethernet_clip0_22_2)">
        <path d="M535.548 134c16.258 0 29.382 13.124 29.382 29.382v38.07h-39.176v-28.276H173.175v215.465h274.152v39.174h-78.274v39.176h58.762v39.176H271.113v-39.176h58.764v-39.176H163.381c-16.258 0-29.381-13.123-29.381-29.38V163.382C134 147.124 147.123 134 163.381 134z" />
        <path d="M510.125 256h13.583v34.167h-13.583zM537.292 256h13.583v34.167h-13.583z" />
        <path d="M584.833 303.833h-6.791V235.5c0-3.758-3.057-6.833-6.792-6.833h-81.5c-3.735 0-6.792 3.075-6.792 6.833v68.333h-6.791c-3.736 0-6.792 3.075-6.792 6.834v34.166c0 11.275 9.169 20.5 20.375 20.5h81.5c11.206 0 20.375-9.225 20.375-20.5v-34.166c0-3.759-3.056-6.834-6.792-6.834zM496.542 242.333h67.916v61.5h-67.916zM578.042 344.833c0 3.759-3.057 6.834-6.792 6.834h-81.5c-3.735 0-6.792-3.075-6.792-6.834V317.5h95.084z" />
        <path d="M521 496c0 5.523 4.477 10 10 10s10-4.477 10-10h-10zM531 496h10V365h-10-10v131z" />
    </g>
    <defs>
        <clipPath id="ethernet_clip0_22_2">
            <rect fill="#fff" transform="translate(92 63)" width="514" height="514" />
        </clipPath>
    </defs>
</svg>