<svg viewBox="0 0 724 658" fill="var(--color0, #fff)" width="35.209726" height="32" xmlns="http://www.w3.org/2000/svg" xmlns:xlink="http://www.w3.org/1999/xlink">
    <style>
        :root, .palette0 {color: currentColor;
            --color0: #fff;
            --color1: #8f8f8f;
            --color2: #cd1313;
            --color3: #29df3b;
            --color4: #e51515;
        }
    </style>
    <path d="M496.273 565.829c-12.768 34.643-47.026 59.22-87.822 59.22s-75.052-24.577-87.82-59.22zM408.451 32.8487c26.471 2e-4 48.895 15.397 57.927 37.3086 92.18 23.9834 160.071 104.2267 160.071 199.5717v76.69l53.254 50.633c5.604 5.626 9.031 13.028 9.031 21.022v59.22c0 16.286-14.015 29.61-31.143 29.61H342.589c10.604-22.535 16.528-47.666 16.528-74.168 0-94.004-74.518-170.779-168.263-175.589 5.684-89.488 71.588-163.7889 159.672-186.9897 9.343-21.9114 31.455-37.3084 57.925-37.3086z" />
    <path d="M177.888 573.642c78.195 0 141.585-62.831 141.585-140.339 0-77.507-63.39-140.339-141.585-140.339-78.1947 0-141.5843 62.832-141.5843 140.339 0 77.508 63.3896 140.339 141.5843 140.339z" />
</svg>