<svg viewBox="0 0 698 640" fill="none" width="34.9" height="32" xmlns="http://www.w3.org/2000/svg" xmlns:xlink="http://www.w3.org/1999/xlink">
    <style>
        :root, .palette0 {color: currentColor;
            --color0: #fff;
            --color1: #8f8f8f;
            --color2: #cd1313;
            --color3: #29df3b;
            --color4: #e51515;
        }
    </style>
    <path fill="var(--color0, #fff)" d="M537.629 352.804c-7.323-3.512-15.817-4.097-23.432-1.171-7.616 2.927-13.767 8.78-16.696 16.389l-58.58 146.329c-5.565 14.048 0.586 30.144 14.059 37.168l58.581 29.266c3.554 1.804 7.439 2.865 11.418 3.116 3.979 0.252 7.967-0.311 11.721-1.653 7.615-2.634 13.766-8.487 16.988-16.096l49.208-114.722c17.926-42.045 25.601-87.744 22.393-133.332-3.208-45.589-17.208-89.765-40.846-128.89C536.457 112.825 460.01 65.1213 373.018 58.0975c-15.817-1.4633-32.219-1.4633-48.036 0-86.992 7.0238-163.439 55.0195-209.425 131.1105-23.6381 39.125-37.6376 83.301-40.8457 128.89-3.2081 45.588 4.4669 91.287 22.393 133.332l49.2077 114.722c3.222 7.316 9.373 13.169 16.988 16.096 7.616 2.634 15.817 2.341 23.139-1.171l58.581-29.266c6.594-3.291 11.704-8.945 14.31-15.834s2.516-14.507-0.251-21.333l-58.58-146.329c-1.475-3.75-3.724-7.148-6.6-9.972-2.877-2.824-6.317-5.01-10.096-6.417-7.615-2.926-16.109-2.341-23.432 1.171l-25.775 12.877c-5.858-50.337 4.686-101.845 31.633-146.329 36.32-59.995 96.072-97.455 164.025-103.016 12.595-1.171 25.483-1.171 38.37 0 67.954 5.561 127.706 43.021 164.026 103.016 26.39 43.962 37.511 95.402 31.633 146.329l-25.775-12.877z" />
</svg>